<?xml version="1.0" encoding="UTF-8" standalone="no"?>
<!-- Created with Inkscape (http://www.inkscape.org/) -->

<svg
   xmlns:dc="http://purl.org/dc/elements/1.1/"
   xmlns:cc="http://creativecommons.org/ns#"
   xmlns:rdf="http://www.w3.org/1999/02/22-rdf-syntax-ns#"
   xmlns:svg="http://www.w3.org/2000/svg"
   xmlns="http://www.w3.org/2000/svg"
   xmlns:sodipodi="http://sodipodi.sourceforge.net/DTD/sodipodi-0.dtd"
   xmlns:inkscape="http://www.inkscape.org/namespaces/inkscape"
   version="1.1"
   id="svg15535"
   xml:space="preserve"
   width="800"
   height="800"
   viewBox="0 0 800 800"
   sodipodi:docname="sale-peeling-stickerpublicdomainvectors.org.svg"
   inkscape:version="0.92.4 (5da689c313, 2019-01-14)"><metadata
     id="metadata15541"><rdf:RDF><cc:Work
         rdf:about=""><dc:format>image/svg+xml</dc:format><dc:type
           rdf:resource="http://purl.org/dc/dcmitype/StillImage" /><dc:title></dc:title></cc:Work></rdf:RDF></metadata><defs
     id="defs15539"><clipPath
       clipPathUnits="userSpaceOnUse"
       id="clipPath15551"><path
         d="M 0,600 H 600 V 0 H 0 Z"
         id="path15549"
         inkscape:connector-curvature="0" /></clipPath><linearGradient
       x1="0"
       y1="0"
       x2="1"
       y2="0"
       gradientUnits="userSpaceOnUse"
       gradientTransform="matrix(426.65186,0,0,-426.65186,97.305176,344.41357)"
       spreadMethod="pad"
       id="linearGradient15571"><stop
         style="stop-opacity:1;stop-color:#fabe76"
         offset="0"
         id="stop15565" /><stop
         style="stop-opacity:1;stop-color:#ed1c24"
         offset="0.57279018"
         id="stop15567" /><stop
         style="stop-opacity:1;stop-color:#ed1c24"
         offset="1"
         id="stop15569" /></linearGradient><linearGradient
       x1="0"
       y1="0"
       x2="1"
       y2="0"
       gradientUnits="userSpaceOnUse"
       gradientTransform="matrix(53.575073,-53.575073,-53.575073,-53.575073,366.19141,296.35742)"
       spreadMethod="pad"
       id="linearGradient15597"><stop
         style="stop-opacity:1;stop-color:#ffffff"
         offset="0"
         id="stop15587" /><stop
         style="stop-opacity:1;stop-color:#ffffff"
         offset="0.404494"
         id="stop15589" /><stop
         style="stop-opacity:1;stop-color:#ffffff"
         offset="0.54880429"
         id="stop15591" /><stop
         style="stop-opacity:1;stop-color:#eaeaea"
         offset="0.764045"
         id="stop15593" /><stop
         style="stop-opacity:1;stop-color:#eaeaea"
         offset="1"
         id="stop15595" /></linearGradient></defs><sodipodi:namedview
     pagecolor="#ffffff"
     bordercolor="#666666"
     borderopacity="1"
     objecttolerance="10"
     gridtolerance="10"
     guidetolerance="10"
     inkscape:pageopacity="0"
     inkscape:pageshadow="2"
     inkscape:window-width="1920"
     inkscape:window-height="1018"
     id="namedview15537"
     showgrid="false"
     inkscape:zoom="0.90416968"
     inkscape:cx="423.72881"
     inkscape:cy="408.47458"
     inkscape:window-x="-8"
     inkscape:window-y="-8"
     inkscape:window-maximized="1"
     inkscape:current-layer="g15543" /><g
     id="g15543"
     inkscape:groupmode="layer"
     inkscape:label="sale-peeling-stickerpublicdomainvectors.org"
     transform="matrix(1.3333333,0,0,-1.3333333,0,800)"><g
       id="g15545"><g
         id="g15547"
         clip-path="url(#clipPath15551)"><g
           id="g15553"><g
             id="g15555"><g
               id="g15561"><g
                 id="g15563"><path
                   d="m 311.03,558.086 c -118.035,0 -213.725,-95.69 -213.725,-213.726 0,-116.625 93.435,-211.372 209.523,-213.619 l 217.129,231.45 C 514.889,471.875 423.055,558.086 311.03,558.086"
                   style="fill:url(#linearGradient15571);stroke:none"
                   id="path15573"
                   inkscape:connector-curvature="0" /></g></g></g></g><g
           id="g15575"><g
             id="g15577"><g
               id="g15583"><g
                 id="g15585"><path
                   d="m 524.753,362.081 c -1.399,0.029 -2.791,0.11 -4.201,0.11 -118.037,0 -213.724,-95.693 -213.724,-213.726 0,-6.01 0.312,-11.942 0.796,-17.826 z"
                   style="fill:url(#linearGradient15597);stroke:none"
                   id="path15599"
                   inkscape:connector-curvature="0" /></g></g></g></g><path
           d="m 204.355,304.655 c 2.025,-1.924 3.891,-4.37 1.463,-6.923 -2.004,-2.11 -4.431,-1.319 -6.444,0.1 -7.435,5.22 -19.309,6.122 -27.332,0.679 l -5.108,4.854 c 5.358,5.456 14.313,8.179 15.228,9.146 2.176,2.288 -1.159,5.128 1.02,7.419 2.593,2.729 5.418,-0.3 6.122,-0.968 z M 189.11,231.68 c -1.846,1.755 -3.978,4.449 -1.633,6.915 1.676,1.759 4.253,1.653 6,0.492 8.213,-5.464 21.616,-8.812 30.565,-2.575 l 5.104,-4.852 c -7.461,-7.493 -12.13,-6.233 -15.141,-9.402 -2.678,-2.819 0.478,-5.317 -1.616,-7.518 -2.589,-2.726 -5.847,0.364 -6.287,0.789 z m -20.836,62.869 c -2.038,-4.432 -2.335,-9.679 1.279,-13.113 4.308,-4.099 9.213,-4.236 23.218,2.391 20.798,9.896 32.42,5.55 40.518,-2.146 13.645,-12.975 11.742,-32.777 -0.379,-46.064 l -5.107,4.86 c 2.697,5.476 4.195,10.927 -0.484,15.705 -5.372,5.449 -13.859,1.108 -19.722,-1.354 -15.209,-6.659 -30.021,-12.188 -43.84,0.947 -13.378,12.721 -12.451,30.269 -0.592,43.63 z"
           style="fill:#ffffff;fill-opacity:1;fill-rule:nonzero;stroke:none"
           id="path15601"
           inkscape:connector-curvature="0" /><path
           d="m 270.738,312.262 -12.217,-12.849 -3.931,6.082 10.21,10.74 -47.366,28.096 -3.663,5.664 18.495,19.453 68.185,-39.681 c 2.968,-1.811 4.724,-3.314 8.119,-1.855 1.704,0.729 3.243,1.114 4.826,-0.391 2.375,-2.262 -0.724,-5.344 -2.316,-7.02 l -20.832,-21.918 c -1.677,-1.76 -4.279,-4.145 -6.567,-1.974 -1.407,1.34 -1.341,2.291 -0.872,4.015 0.848,3.549 0.571,4.487 -3.618,6.954 z m -35.446,15.769 22.238,-36.893 c 4.033,-6.51 6.702,-6.703 10.866,-4.961 1.952,0.821 3.657,1.55 5.415,-0.121 2.469,-2.345 -0.302,-5.076 -1.975,-6.835 l -9.621,-10.125 c -1.673,-1.766 -4.779,-4.846 -7.327,-2.426 -2.114,2.013 -0.603,3.423 0.27,6.281 0.789,2.766 1.027,7.07 -3.636,14.686 l -28.604,47.294 0.251,0.264 z"
           style="fill:#ffffff;fill-opacity:1;fill-rule:nonzero;stroke:none"
           id="path15603"
           inkscape:connector-curvature="0" /><path
           d="m 343.546,364.88 c 5.808,8.054 3.498,17.958 -2.936,27.591 -1.513,2.28 -1.04,3.837 0.719,5.687 1.923,2.025 3.764,0.612 5.435,-0.979 l 19.541,-18.574 -17.655,-18.581 z m 1.34,-8.817 -22.094,-23.241 c -0.33,-0.348 -3.269,-3.088 -5.824,-0.659 -1.232,1.167 -1.273,2.714 -0.53,4.195 1.953,4.004 1.346,4.415 -1.917,7.513 l -46.124,43.843 c -3.256,3.099 -3.697,3.688 -7.599,1.528 -1.44,-0.809 -2.987,-0.851 -4.22,0.323 -2.552,2.428 0.036,5.501 0.37,5.846 l 23.68,24.916 c 0.334,0.355 3.27,3.094 5.826,0.663 1.235,-1.17 1.274,-2.711 0.531,-4.194 -1.952,-4.001 -1.349,-4.416 1.911,-7.514 z"
           style="fill:#ffffff;fill-opacity:1;fill-rule:nonzero;stroke:none"
           id="path15605"
           inkscape:connector-curvature="0" /><path
           d="m 393.254,417.168 c 5.891,7.969 6.241,18.031 1.456,27.103 -0.734,1.871 -1.641,3.735 -0.136,5.318 2.679,2.82 5.068,0.044 5.42,-0.293 L 417.6,432.564 398.358,412.319 Z m -31.343,29.793 c 2.548,4.618 0.705,9.552 -1.89,13.523 -1.079,1.865 -1.984,3.728 -0.228,5.579 2.596,2.728 5.343,-0.725 6.051,-1.393 l 19.011,-18.075 c 0.706,-0.669 4.293,-3.244 1.702,-5.971 -1.761,-1.85 -3.665,-1.035 -5.584,-0.056 -4.1,2.39 -9.12,3.98 -13.602,1.204 z m -29.401,27.948 18.657,19.628 17.873,-16.985 c 0.439,-0.42 2.032,-2.096 -0.478,-4.739 -1.422,-1.495 -2.721,-1.096 -4.465,-0.283 -9.307,4.488 -17.889,4.1 -26.483,-2.473 z m -25.856,-27.201 22.093,23.238 65.844,-62.588 -22.089,-23.24 c -0.339,-0.356 -3.274,-3.094 -5.829,-0.667 -1.232,1.174 -1.275,2.718 -0.531,4.195 1.959,4.005 1.345,4.418 -1.915,7.517 l -46.126,43.844 c -3.257,3.099 -3.699,3.684 -7.599,1.526 -1.44,-0.811 -2.986,-0.849 -4.217,0.319 -2.555,2.43 0.031,5.499 0.369,5.856"
           style="fill:#ffffff;fill-opacity:1;fill-rule:nonzero;stroke:none"
           id="path15607"
           inkscape:connector-curvature="0" /><path
           d="m 438.924,452.35 c -5.194,-5.46 -13.442,-5.324 -18.548,-0.468 -5.104,4.85 -5.657,13.083 -0.471,18.542 5.186,5.454 13.439,5.322 18.54,0.468 5.109,-4.855 5.661,-13.088 0.479,-18.542 m -47.307,63.056 c 3.609,-3.428 6.583,-8.937 9.016,-13.431 4.153,-7.796 8.474,-15.592 14.647,-21.962 1.769,-1.845 3.111,-3.961 0.599,-6.598 -2.511,-2.643 -4.691,-1.408 -6.623,0.257 -6.676,5.844 -14.68,9.767 -22.68,13.514 -4.607,2.205 -10.256,4.898 -13.865,8.328 -6.251,5.942 -9.225,14.629 -2.699,21.496 6.529,6.867 15.355,4.339 21.605,-1.604"
           style="fill:#ffffff;fill-opacity:1;fill-rule:nonzero;stroke:none"
           id="path15609"
           inkscape:connector-curvature="0" /></g></g></g></svg>