<svg height="82" viewBox="0 0 82 82" width="82" xmlns="http://www.w3.org/2000/svg"><g fill="none"><circle cx="41" cy="41" fill="#1ebea5" r="41"/><path d="m25.0623711 24.8833164c-7.3848047 7.3848047-8.6152852 18.6391445-3.5780508 27.3311445l-3.151875 11.3791016 18.1585156 18.1585156c1.481125.161918 2.9849922.2479219 4.5090391.2479219 19.8886836 0 36.4675781-14.1618164 40.2080273-32.9511875l-24.1653359-24.1654961c-8.830375-8.8302148-23.1446602-8.8358203-31.9803203 0z" fill="#1b9884"/><path d="m57.0426914 24.8833164c-8.830375-8.830375-23.1446602-8.8358203-31.9803203 0-7.3848047 7.3848047-8.6152852 18.6391445-3.5780508 27.3311445l-3.151875 11.3791016 11.3791016-3.151875c8.7400468 5.0652617 19.9830156 3.769918 27.3311445-3.5780508 8.8289336-8.8289336 8.8371016-23.1432187 0-31.9803203z" fill="#01e677" stroke="#fff" stroke-width="3"/><path d="m53.4481445 48.9463125c-.0084883-.6750586-.6395039-1.2245547-1.4130586-1.3193672-1.8943281-.2288633-3.684875-.7323945-5.3354453-1.459664-.5997851-.2628165-1.2910195-.1582344-1.7072656.280914-.3760469.4035938-.7634648.7996602-1.161293 1.1875586-4.1145742-2.0695391-7.4706484-5.4257734-9.5401875-9.5401875.3880586-.3979883.784125-.7850859 1.1875586-1.1614531.4388281-.4162461.5437305-1.1074805.2809141-1.7072656-.7272695-1.6507305-1.2306406-3.4411172-1.4596641-5.3354454-.0949726-.7730742-.6436679-1.4045703-1.3182461-1.4130586-.478707 0-1.0624765 0-1.6785976 0-2.4484688-.1385351-4.566375 3.2076094-3.5063008 7.0614493 2.4758555 9.0143945 9.5762226 16.1146015 18.590457 18.590457 3.8535196 1.0600742 7.2001446-1.058793 7.0614492-3.5069414-.0003203-.5591055-.0003203-1.1180508-.0003203-1.6769961z" fill="#fff"/></g></svg>