<svg xmlns="http://www.w3.org/2000/svg" xmlns:xlink="http://www.w3.org/1999/xlink" enable-background="new 0 0 16 16" viewBox="0 0 16 16"><defs><linearGradient id="a"><stop offset="0" stop-color="#000092"/><stop offset="1" stop-color="#ff00f3"/></linearGradient><linearGradient id="b" x1="-.01" x2="14" y1="8" y2="8" gradientUnits="userSpaceOnUse" xlink:href="#a"/></defs><path fill="url(#b)" d="M 11.5 0 C 11.28086 0.00227261 11.062179 0.02055041 10.845703 0.0546875 C 10.811843 0.0597211 10.777743 0.062566605 10.744141 0.068359375 C 10.528385 0.10489214 10.31558 0.15711401 10.107422 0.22460938 C 8.7802615 0.65845584 7.7296762 1.6837868 7.2636719 3 L 1.1523438 3 C 0.51234365 3 -0.009765625 3.5201563 -0.009765625 4.1601562 L -0.009765625 6.8398438 C -0.009765625 7.0908438 0.08860937 7.31 0.22460938 7.5 C 0.08860937 7.69 -0.009765625 7.9091565 -0.009765625 8.1601562 L -0.009765625 10.839844 C -0.009765625 11.090844 0.08860937 11.31 0.22460938 11.5 C 0.08860937 11.69 -0.009765625 11.909156 -0.009765625 12.160156 L -0.009765625 14.839844 C -0.009765625 15.480844 0.51234365 16 1.1523438 16 L 11.830078 16 C 12.470078 16 12.990234 15.479844 12.990234 14.839844 L 12.990234 12.160156 C 12.990234 11.909156 12.893814 11.69 12.757812 11.5 C 12.893813 11.31 12.990234 11.090844 12.990234 10.839844 L 12.990234 8.7402344 C 13.860715 8.4344904 14.616182 7.8685721 15.154297 7.1191406 L 15.154297 7.1171875 L 15.154297 7.1152344 C 15.287002 6.9330021 15.405827 6.7410554 15.509766 6.5410156 L 15.511719 6.5371094 C 15.513019 6.5345394 15.514325 6.5318669 15.515625 6.5292969 C 15.599475 6.3595922 15.67254 6.1847657 15.734375 6.0058594 C 15.759525 5.9361794 15.782978 5.8661692 15.804688 5.7949219 C 15.848437 5.6510082 15.88494 5.5049915 15.914062 5.3574219 C 15.935633 5.2474671 15.949601 5.1361711 15.962891 5.0234375 C 15.978921 4.8943926 15.989341 4.7647136 15.994141 4.6347656 C 15.995441 4.5897296 16.005859 4.5473256 16.005859 4.5019531 C 16.005843 4.4618561 15.995201 4.4246151 15.994141 4.3847656 C 15.988541 4.1574515 15.965661 3.9308912 15.925781 3.7070312 C 15.912141 3.6311643 15.896306 3.5569308 15.878906 3.4824219 C 15.827546 3.2621281 15.759642 3.0460207 15.675781 2.8359375 C 15.655781 2.7860795 15.636954 2.7364635 15.615234 2.6875 C 15.514062 2.4578111 15.393851 2.2369888 15.255859 2.0273438 C 15.244059 2.0094987 15.234706 1.9903232 15.222656 1.9726562 C 15.075629 1.7582377 14.910298 1.5569637 14.728516 1.3710938 C 14.705946 1.3478568 14.685169 1.3235304 14.662109 1.3007812 C 14.476279 1.1183188 14.275044 0.95233533 14.060547 0.8046875 C 14.038171 0.78917161 14.016808 0.77293085 13.994141 0.7578125 C 13.779772 0.616356 13.553685 0.49351163 13.318359 0.390625 C 13.281138 0.37412508 13.244773 0.35730763 13.207031 0.34179688 C 12.973572 0.24620821 12.732488 0.17042037 12.486328 0.11523438 C 12.442543 0.10542358 12.399722 0.09445822 12.355469 0.0859375 C 12.073709 0.03005375 11.787246 0.00127661 11.5 0 z M 11.503906 1.0019531 C 11.740458 1.0019531 11.971804 1.0253705 12.195312 1.0703125 C 12.196613 1.0705639 12.198019 1.0700597 12.199219 1.0703125 C 12.210959 1.0735025 12.222665 1.0767581 12.234375 1.0800781 C 12.45262 1.1266161 12.664024 1.1920978 12.865234 1.2773438 C 13.069654 1.3639497 13.262846 1.4696084 13.445312 1.5917969 L 13.462891 1.6035156 C 13.633567 1.7193069 13.792042 1.8527955 13.939453 1.9960938 C 13.957853 2.0121788 13.976081 2.0284559 13.994141 2.0449219 C 14.127781 2.1803548 14.247093 2.3287635 14.357422 2.484375 C 14.381432 2.517167 14.404884 2.5503754 14.427734 2.5839844 C 14.526624 2.7342996 14.610392 2.8953657 14.685547 3.0605469 C 14.706727 3.1063289 14.726914 3.1525638 14.746094 3.1992188 C 14.811254 3.3608233 14.863648 3.5287428 14.904297 3.7011719 C 14.917327 3.7555709 14.929043 3.8102738 14.939453 3.8652344 C 14.974323 4.0537928 14.994817 4.2475638 14.998047 4.4453125 C 14.99884 4.4635365 14.9994 4.481767 15 4.5 C 14.999019 4.527358 14.997694 4.5547043 14.996094 4.5820312 C 14.991994 4.7593455 14.973019 4.9316398 14.943359 5.1015625 C 14.931199 5.1722985 14.916871 5.2426447 14.900391 5.3125 C 14.860451 5.4792478 14.810961 5.6422453 14.748047 5.7988281 C 14.732457 5.8375271 14.716179 5.8759451 14.699219 5.9140625 C 14.627019 6.0765253 14.542365 6.2324895 14.447266 6.3808594 C 14.428246 6.4130714 14.408712 6.4449765 14.388672 6.4765625 L 14.373047 6.4980469 C 14.269652 6.6461069 14.153758 6.7838963 14.029297 6.9140625 C 14.003717 6.9424825 13.977672 6.9704809 13.951172 6.9980469 C 13.81551 7.1309737 13.665475 7.2497371 13.509766 7.359375 C 13.482066 7.37997 13.454081 7.4001549 13.425781 7.4199219 C 13.26897 7.5235264 13.102697 7.6117745 12.929688 7.6894531 C 12.892227 7.7070491 12.854468 7.7239784 12.816406 7.7402344 C 12.6427 7.8108494 12.461591 7.8660383 12.275391 7.9082031 C 12.237131 7.9179631 12.198721 7.9270829 12.160156 7.9355469 C 11.956825 7.9743159 11.74724 7.9962329 11.533203 7.9980469 C 11.52211 7.9987483 11.511071 7.9994016 11.5 8 L 11.470703 7.9980469 C 11.247348 7.9959069 11.027995 7.9739436 10.816406 7.9316406 C 10.812606 7.9308779 10.808506 7.9304575 10.804688 7.9296875 L 10.773438 7.921875 C 10.101164 7.7785102 9.4984877 7.4438002 9.0292969 6.9746094 C 8.8721571 6.8174696 8.7306384 6.6454359 8.6054688 6.4609375 C 8.6039386 6.4586875 8.6011294 6.4573281 8.5996094 6.4550781 C 8.4759413 6.2718789 8.3708871 6.0746589 8.2832031 5.8691406 C 8.281252 5.8645674 8.2792759 5.8600519 8.2773438 5.8554688 C 8.1898218 5.6478689 8.1224513 5.4306687 8.0761719 5.2050781 C 8.0294727 4.9774414 8.0039064 4.7432031 8.0039062 4.5019531 C 8.0039062 3.0585163 8.8826475 1.8177283 10.132812 1.2832031 C 10.138814 1.2806531 10.144411 1.2779006 10.150391 1.2753906 C 10.349951 1.1913826 10.559143 1.1260676 10.775391 1.0800781 C 10.789041 1.0767381 10.802716 1.0734925 10.816406 1.0703125 C 11.038749 1.0258595 11.268678 1.0019531 11.503906 1.0019531 z M 10.542969 2.3085938 C 10.453844 2.3037187 10.36325 2.3207813 10.28125 2.3632812 C 10.11725 2.4502813 10.015625 2.6216406 10.015625 2.8066406 L 10.015625 6.1816406 C 10.015625 6.3676406 10.11825 6.5360469 10.28125 6.6230469 C 10.35425 6.6610469 10.435625 6.6816406 10.515625 6.6816406 C 10.614625 6.6816406 10.712875 6.65175 10.796875 6.59375 L 13.277344 4.90625 C 13.414344 4.81325 13.496094 4.6571875 13.496094 4.4921875 C 13.496094 4.3271875 13.414344 4.1730781 13.277344 4.0800781 L 10.796875 2.3925781 C 10.720375 2.3405781 10.632094 2.3134688 10.542969 2.3085938 z M 11.015625 3.7519531 L 12.107422 4.4921875 L 11.015625 5.234375 L 11.015625 3.7519531 z M 1.1523438 4 L 7.0332031 4 C 7.0128571 4.1659206 7.0017723 4.332846 7 4.5 C 7.00182 4.7131745 7.0187942 4.9259499 7.0507812 5.1367188 C 7.0548912 5.1655618 7.0598011 5.1939912 7.0644531 5.2226562 C 7.1321351 5.6378683 7.2577066 6.0415381 7.4375 6.421875 C 7.44214 6.431635 7.4464699 6.4414509 7.4511719 6.4511719 C 7.541096 6.6410957 7.6442129 6.8244869 7.7597656 7 L 1.1523438 7 C 1.0633438 7 0.99023437 6.928844 0.99023438 6.8398438 L 0.99023438 4.1601562 C 0.99023438 4.0711564 1.0633437 4 1.1523438 4 z M 1.9902344 5 L 1.9902344 6 L 4.9902344 6 L 4.9902344 5 L 1.9902344 5 z M 1.1523438 8 L 8.6738281 8 C 9.4738996 8.6465556 10.471337 8.9994843 11.5 9 L 11.501953 9 L 11.503906 9.0019531 C 11.517976 9.0019531 11.530982 8.9984669 11.544922 8.9980469 C 11.69372 8.9962969 11.84234 8.9871751 11.990234 8.9707031 L 11.990234 10.839844 C 11.990234 10.928844 11.919074 11 11.830078 11 L 1.1523438 11 C 1.0633438 11 0.99023437 10.92884 0.99023438 10.839844 L 0.99023438 8.1601562 C 0.99023438 8.0711564 1.0633437 8 1.1523438 8 z M 1.9902344 9 L 1.9902344 10 L 4.9902344 10 L 4.9902344 9 L 1.9902344 9 z M 10 9 L 10 10 L 11 10 L 11 9 L 10 9 z M 1.1523438 12 L 11.830078 12 C 11.919078 12 11.990234 12.07116 11.990234 12.160156 L 11.990234 14.839844 C 11.990234 14.928844 11.919074 15 11.830078 15 L 1.1523438 15 C 1.0633438 15 0.99023437 14.92884 0.99023438 14.839844 L 0.99023438 12.160156 C 0.99023438 12.071156 1.0633437 12 1.1523438 12 z M 1.9902344 13 L 1.9902344 14 L 4.9902344 14 L 4.9902344 13 L 1.9902344 13 z M 10 13 L 10 14 L 11 14 L 11 13 L 10 13 z "/></svg>